<svg xmlns="http://www.w3.org/2000/svg" viewBox="0 0 30 16"><rect width="29.98" height="16" style="fill:#fff"/><polygon points="13.49 9.59 13.49 16 16.49 16 16.49 9.59 29.98 9.59 29.98 6.4 16.49 6.4 16.49 0 13.49 0 13.49 6.4 0 6.4 0 9.59 13.49 9.59" style="fill:#cf142b"/><polygon points="17.49 5.18 17.49 0 27.2 0 17.49 5.18" style="fill:#00247d"/><polygon points="17.49 10.82 17.49 16 27.2 16 17.49 10.82" style="fill:#00247d"/><polygon points="12.49 10.82 12.49 16 2.79 16 12.49 10.82" style="fill:#00247d"/><polygon points="12.49 5.18 12.49 0 2.79 0 12.49 5.18" style="fill:#00247d"/><polygon points="0 1.49 0 5.33 7.21 5.33 0 1.49" style="fill:#00247d"/><polygon points="29.98 1.49 29.98 5.33 22.78 5.33 29.98 1.49" style="fill:#00247d"/><polygon points="29.98 14.51 29.98 10.67 22.78 10.67 29.98 14.51" style="fill:#00247d"/><polygon points="0 14.51 0 10.67 7.21 10.67 0 14.51" style="fill:#00247d"/><polyline points="29.98 0 28.32 0 18.34 5.33 20 5.33 30 0" style="fill:#cf142b"/><polyline points="11.64 10.66 9.98 10.66 0 16 1.67 16 11.66 10.66" style="fill:#cf142b"/><polygon points="8.33 5.34 9.99 5.34 0 0 0 0.89 8.33 5.34" style="fill:#cf142b"/><polygon points="21.65 10.66 19.99 10.66 29.98 16 29.98 15.11 21.65 10.66" style="fill:#cf142b"/></svg>
